<svg enable-background="new 0 0 128 128" viewBox="0 0 128 128" xmlns="http://www.w3.org/2000/svg" xmlns:xlink="http://www.w3.org/1999/xlink"><linearGradient id="a" gradientTransform="matrix(.9796 -.2011 .2011 .9796 -90.0297 -742.6205)" gradientUnits="userSpaceOnUse" x1="-28.6978" x2="-28.6978" y1="782.7485" y2="861.8305"><stop offset=".0079465" stop-color="#ff9800"/><stop offset="1" stop-color="#ef6c00"/></linearGradient><linearGradient id="b"><stop offset=".0102" stop-color="#bdbdbd"/><stop offset=".9869" stop-color="#f5f5f5"/></linearGradient><linearGradient id="c" gradientTransform="matrix(.9796 -.2011 .2011 .9796 -90.0297 -742.6205)" gradientUnits="userSpaceOnUse" x1="-63.1497" x2="2.5276" xlink:href="#b" y1="864.9547" y2="864.9547"/><linearGradient id="d" gradientTransform="matrix(1.0341 .1007 -.0969 .9953 46.6683 -695.0453)" gradientUnits="userSpaceOnUse" x1="89.8433" x2="89.8433" y1="698.7209" y2="778.3585"><stop offset=".0079465" stop-color="#4480f7"/><stop offset="1" stop-color="#315db3"/></linearGradient><linearGradient id="e" gradientTransform="matrix(1.0341 .1007 -.0969 .9953 46.6683 -695.0453)" gradientUnits="userSpaceOnUse" x1="56.9355" x2="120.2386" xlink:href="#b" y1="781.7806" y2="781.7806"/><linearGradient id="f" gradientTransform="matrix(.9961 -.0882 .0882 .9961 -38.0419 -725.1424)" gradientUnits="userSpaceOnUse" x1="53.2545" x2="53.2545" y1="765.1921" y2="843.1102"><stop offset=".0079465" stop-color="#66bb6a"/><stop offset="1" stop-color="#2e7d32"/></linearGradient><linearGradient id="g" gradientTransform="matrix(.9961 -.0882 .0882 .9961 -38.0419 -725.1424)" gradientUnits="userSpaceOnUse" x1="20.6641" x2="82.6453" xlink:href="#b" y1="846.1411" y2="846.1411"/><path d="m90.7 109.3-64 13.1c-3.2.7-6.4-1.4-7.1-4.7l-13-63.2c-.7-3.2 1.4-6.4 4.7-7.1l64-13.1c.1.1 15.4 75 15.4 75z" fill="#424242"/><path d="m91.2 99.6-66.4 13.6c-3.2.7-6.4-1.4-7.1-4.7l-13.4-65.5c-.7-3.2 1.4-6.4 4.7-7.1l66.4-13.6z" fill="url(#a)"/><path d="m31.4 111.8-6.5 1.3c-3.2.7-6.4-1.4-7.1-4.7l-13.4-65.4c-.7-3.2 1.4-6.4 4.7-7.1l6.5-1.3z" fill="#424242"/><path d="m73.1 25.9 14.7 71.4c-.6.2-1 .6-1.4 1.1-.4.7-.6 1.5-.4 2.2l1.3 6.3-62.1 12.7c-.1 0-.3 0-.4 0-.9 0-1.6-.6-1.8-1.3l-1.9-9.3-11.7-56.2-2.4-11.6c-.2-.9.5-1.9 1.6-2.1zm2.3-3.6-67.4 13.9c-2.7.5-4.4 3.1-3.9 5.6l2.4 11.6 11.6 56.4 1.9 9.2c.5 2.2 2.5 3.8 4.8 3.8.3 0 .7 0 1-.1l65-13.3-1.9-9.3 2.4-.5z" fill="#424242" opacity=".2"/><path d="m87 107.7-60.9 12.5c-1.9.4-3.7-.8-4.1-2.7v-.2c-.4-1.9.8-3.7 2.7-4.1l60.9-12.5z" fill="url(#c)"/><path d="m97.9 101.4-65.2-6.3c-3.3-.3-5.7-3.3-5.4-6.6l6.3-64.7c.3-3.3 3.3-5.7 6.5-5.4l65.2 6.4c.1-.1-7.4 76.6-7.4 76.6z" fill="#424242"/><path d="m101 91.9-67.6-6.6c-3.3-.3-4.7-3.3-4.4-6.6l5.5-67.1c.3-3.3 3.3-5.7 6.5-5.4l67.6 6.6c.1 0-7.6 79.1-7.6 79.1z" fill="url(#d)"/><path d="m108.7 12.8-59.4-5.6-7.7 79-8.2-.9c-3.3-.3-4.7-3.3-4.4-6.6l5.5-67.1c.3-3.3 3.3-5.7 6.6-5.4z" fill="#424242"/><path d="m39.8 9.5h.2l65.6 6.4-7.1 73c-.6.1-1.2.3-1.7.7-.6.5-1 1.3-1.1 2.1l-.6 6.4-63.1-6.2c-.5-.1-1-.3-1.3-.7-.2-.2-.5-.6-.4-1.2l.9-9.5 5.6-57.7 1.2-11.8c.1-.9.9-1.5 1.8-1.5m0-3.1c-2.5 0-4.7 1.8-4.9 4.3l-.2 11.8-5.6 57.7-1.9 9.5c-.3 2.6 1.7 5 4.5 5.2l66.2 6.4.9-9.5 2.5.2 7.7-79-68.7-6.6c-.1 0-.3 0-.5 0z" fill="#424242" opacity=".2"/><path d="m94.9 98.7-62-6c-1.9-.2-3.3-1.9-3.1-3.8v-.2c.2-1.9 1.9-3.3 3.8-3.1l62 6z" fill="url(#e)"/><path d="m122.5 116-61.1 5.4c-3.3.3-6.2-2.2-6.5-5.4l-5.6-63.1c-.3-3.3 2.2-6.2 5.5-6.5l61.1-5.4c0-.1 6.6 75 6.6 75z" fill="#424242"/><path d="m124 106.5-63.4 5.6c-3.3.3-6.2-2.2-6.5-5.4l-5.8-65.4c-.3-3.3 2.2-6.2 5.5-6.5l63.4-5.6c-.1-.1 6.8 77.3 6.8 77.3z" fill="url(#f)"/><path d="m68.2 111.4-8.7.8c-2.8-.3-5.1-2.5-5.4-5.4l-5.8-65.4c-.3-3.3 2.2-6.2 5.5-6.5l7.6-.7z" fill="#424242"/><path d="m114.4 32.4 6.3 71.5c-1.3.4-2.2 1.7-2.1 3.1l.6 6.3-59.4 5.3s-.1 0-.2 0c-.8 0-1.6-.7-1.7-1.5l-.8-9.3-5-56.5-1-11.6c-.1-.9.6-1.7 1.5-1.8zm2.8-3.3-64.7 5.7c-2.6.2-4.5 2.5-4.2 5l1 11.6 5 56.5.8 9.3c.2 2.4 2.2 4.2 4.6 4.2h.4l62.4-5.5-.8-9.3 2.3-.2z" fill="#424242" opacity=".2"/><path d="m119.2 113.9-58.5 5.2c-1.8.2-3.3-1.2-3.5-2.9v-.6c-.2-1.8 1.2-3.3 2.9-3.5l58.5-5.2c0 .1.6 7 .6 7z" fill="url(#g)"/></svg>